<?xml version="1.0" standalone="no"?>
<!DOCTYPE svg PUBLIC "-//W3C//DTD SVG 20010904//EN"
 "http://www.w3.org/TR/2001/REC-SVG-20010904/DTD/svg10.dtd">
<svg version="1.0" xmlns="http://www.w3.org/2000/svg"
 width="260.000000pt" height="260.000000pt" viewBox="0 0 260.000000 260.000000"
 preserveAspectRatio="xMidYMid meet">
<metadata>
Created by potrace 1.11, written by Peter Selinger 2001-2013
</metadata>
<g transform="translate(0.000000,260.000000) scale(0.100000,-0.100000)"
fill="#000000" stroke="none">
<path d="M0 1300 l0 -1300 1300 0 1300 0 0 1300 0 1300 -1300 0 -1300 0 0
-1300z m1460 918 c177 -33 342 -126 473 -267 109 -118 180 -250 223 -416 37
-143 37 -327 0 -470 -43 -166 -114 -298 -223 -416 -172 -185 -387 -281 -633
-281 -246 0 -461 96 -633 281 -109 118 -180 250 -223 416 -37 143 -37 327 0
470 43 166 114 298 223 416 210 226 496 323 793 267z"/>
<path d="M1118 2155 c-279 -68 -510 -290 -601 -581 -120 -380 27 -809 348
-1017 143 -92 262 -127 435 -127 173 0 292 35 435 127 321 208 468 637 348
1017 -92 293 -323 514 -605 581 -79 19 -283 18 -360 0z m493 -102 c121 -54
169 -186 109 -302 -30 -60 -81 -96 -246 -179 -146 -73 -155 -78 -149 -102 10
-42 140 -410 145 -410 3 0 25 33 50 72 56 89 152 194 199 217 79 40 162 33
200 -16 25 -30 27 -80 6 -110 -34 -49 -119 -36 -130 20 -12 61 -16 67 -41 67
-44 0 -161 -128 -237 -260 l-27 -46 30 -62 c68 -144 121 -192 211 -192 63 0
103 21 145 74 28 35 54 47 54 25 0 -24 -113 -128 -163 -149 -59 -26 -156 -31
-225 -11 -43 12 -108 66 -148 125 l-21 29 -47 -46 c-141 -138 -386 -162 -543
-55 -87 59 -123 135 -123 259 0 115 26 177 109 260 69 68 137 110 281 174 47
21 86 38 87 39 1 1 -7 37 -17 81 -51 218 -27 333 89 438 100 91 275 116 402
60z"/>
<path d="M1391 2043 c-35 -7 -105 -82 -119 -129 -19 -63 -15 -199 8 -289 11
-43 22 -80 25 -83 6 -7 153 75 196 109 23 18 51 56 70 94 29 60 31 71 27 141
-6 85 -23 118 -79 146 -32 17 -76 21 -128 11z"/>
<path d="M1064 1394 c-156 -88 -224 -188 -232 -339 -5 -93 6 -143 47 -207 46
-72 99 -102 187 -106 41 -3 89 1 111 8 54 18 119 65 147 106 l24 35 -40 92
c-22 51 -67 173 -100 272 -33 99 -61 181 -62 182 -1 2 -38 -18 -82 -43z"/>
</g>
</svg>
